<?xml version="1.0" encoding="UTF-8" standalone="no"?>
<svg
   xmlns:dc="http://purl.org/dc/elements/1.1/"
   xmlns:cc="http://creativecommons.org/ns#"
   xmlns:rdf="http://www.w3.org/1999/02/22-rdf-syntax-ns#"
   xmlns:svg="http://www.w3.org/2000/svg"
   xmlns="http://www.w3.org/2000/svg"
   xmlns:xlink="http://www.w3.org/1999/xlink"
   xmlns:sodipodi="http://sodipodi.sourceforge.net/DTD/sodipodi-0.dtd"
   xmlns:inkscape="http://www.inkscape.org/namespaces/inkscape"
   width="600"
   height="64"
   viewBox="0 0 158.75 16.933333"
   version="1.1"
   id="svg8"
   inkscape:version="1.0.2-2 (e86c870879, 2021-01-15)"
   sodipodi:docname="dve_text.svg">
  <defs
     id="defs2">
    <linearGradient
       id="swatch4">
      <stop
         style="stop-color:#513e9a;stop-opacity:1;"
         offset="0"
         id="stop4" />
    </linearGradient>
    <clipPath
       clipPathUnits="userSpaceOnUse"
       id="clipPath3">
      <ellipse
         style="fill:none;fill-opacity:1;stroke:#250e81;stroke-width:0.277743;stroke-dasharray:none;stroke-opacity:1"
         id="ellipse3"
         cx="0.43831402"
         cy="8.446022"
         rx="3.4837713"
         ry="3.2042217" />
    </clipPath>
    <clipPath
       clipPathUnits="userSpaceOnUse"
       id="clipPath3-7">
      <ellipse
         style="fill:none;fill-opacity:1;stroke:#250e81;stroke-width:0.277743;stroke-dasharray:none;stroke-opacity:1"
         id="ellipse3-7"
         cx="0.43831402"
         cy="8.446022"
         rx="3.4837713"
         ry="3.2042217" />
    </clipPath>
    <linearGradient
       xlink:href="#swatch4"
       id="linearGradient4"
       x1="7.4097061"
       y1="6.6164742"
       x2="17.99304"
       y2="6.6164742"
       gradientUnits="userSpaceOnUse"
       gradientTransform="translate(120.84688,80.851468)" />
  </defs>
  <sodipodi:namedview
     id="base"
     pagecolor="#ffffff"
     bordercolor="#666666"
     borderopacity="1.0"
     inkscape:pageopacity="0.0"
     inkscape:pageshadow="2"
     inkscape:zoom="0.98994949"
     inkscape:cx="203.44415"
     inkscape:cy="194.23461"
     inkscape:document-units="mm"
     inkscape:current-layer="layer1"
     inkscape:document-rotation="0"
     showgrid="false"
     inkscape:window-width="1920"
     inkscape:window-height="1018"
     inkscape:window-x="-6"
     inkscape:window-y="-6"
     inkscape:window-maximized="1"
     units="px" />
  <metadata
     id="metadata5">
    <rdf:RDF>
      <cc:Work
         rdf:about="">
        <dc:format>image/svg+xml</dc:format>
        <dc:type
           rdf:resource="http://purl.org/dc/dcmitype/StillImage" />
        <dc:title></dc:title>
      </cc:Work>
    </rdf:RDF>
  </metadata>
  <g
     inkscape:label="Layer 1"
     inkscape:groupmode="layer"
     id="layer1">
    <path
       style="font-size:12px;font-family:'Open Sans';-inkscape-font-specification:'Open Sans, @wght=700,wdth=75.0';font-variation-settings:'wdth' 75, 'wght' 700;letter-spacing:-0.05px;white-space:pre;fill:#b0921b;fill-opacity:1;stroke-width:0.488598;stroke-linejoin:bevel"
       d="m 10.646284,8.3346273 q 0,2.3380207 -0.6489201,3.9507757 -0.639377,1.612755 -1.8799572,2.452534 -1.2310385,0.830228 -3.0251093,0.830228 H 1.8095297 V 1.6164078 h 3.4831691 q 1.7177277,0 2.9105935,0.772978 1.2024101,0.7729778 1.8227007,2.2712116 0.620291,1.4982433 0.620291,3.6740299 z M 7.8883759,8.4586876 q 0,-1.5650429 -0.2958312,-2.5670545 Q 7.2967143,4.8896311 6.7050527,4.4124863 6.1229337,3.9353416 5.2545268,3.9353416 H 4.4910923 v 9.2852644 h 0.5821192 q 1.4505259,0 2.1280739,-1.173775 0.6870905,-1.173784 0.6870905,-3.5881434 z M 18.924457,15.568165 H 12.654752 V 1.6164078 h 6.269705 v 2.2807599 h -3.588142 v 3.2827619 h 3.340026 v 2.2903083 h -3.340026 v 3.7694551 h 3.588142 z m 8.259088,0 H 20.913839 V 1.6164078 h 6.269706 v 2.2807599 h -3.588143 v 3.2827619 h 3.340027 v 2.2903083 h -3.340027 v 3.7694551 h 3.588143 z M 32.713356,1.6164078 q 2.128073,0 3.15871,1.1069754 1.04018,1.0974367 1.04018,3.2064238 0,1.0592628 -0.267203,1.9276755 -0.25766,0.8588643 -0.792063,1.4791563 -0.534404,0.6202824 -1.345554,0.9542902 -0.811149,0.333997 -1.918128,0.333997 h -0.734805 v 4.943239 H 29.172929 V 1.6164078 Z m -0.200401,2.2807599 h -0.658462 v 4.4374596 h 0.467602 q 0.639379,0 1.068809,-0.2385725 0.429432,-0.2385723 0.64892,-0.7634392 0.219488,-0.5248573 0.219488,-1.3837216 0,-1.0688112 -0.438976,-1.5554946 Q 33.390904,3.8971677 32.512955,3.8971677 Z M 50.872915,1.6164078 47.389746,15.568165 H 44.297837 L 40.843296,1.6164078 h 2.796079 l 1.679555,7.872917 q 0.09543,0.4389709 0.200403,1.0306382 0.104966,0.582117 0.190857,1.164236 0.08588,0.572579 0.133599,0.992463 0.05726,-0.419884 0.143143,-0.992463 0.09543,-0.582119 0.200402,-1.164236 0.114511,-0.5821191 0.209944,-1.0306382 L 48.09592,1.6164078 Z M 52.041608,15.568165 V 1.6164078 h 2.681563 V 15.568165 Z m 11.370084,0 H 57.141988 V 1.6164078 h 6.269704 v 2.2807599 h -3.58814 v 3.2827619 h 3.340024 v 2.2903083 h -3.340024 v 3.7694551 h 3.58814 z M 79.257406,1.6164078 76.518584,15.568165 H 73.455305 L 72.167008,8.926284 q -0.05726,-0.3435458 -0.124055,-0.7348041 -0.05726,-0.3912583 -0.124055,-0.8206904 -0.05726,-0.4294322 -0.104968,-0.88749 -0.04772,-0.4676061 -0.09543,-0.9638378 -0.03817,0.3721714 -0.08588,0.8016036 -0.04772,0.4198936 -0.104968,0.8684126 -0.05726,0.4389709 -0.124055,0.8779417 -0.06681,0.4389805 -0.143143,0.8397871 L 69.972167,15.568165 H 66.92794 L 64.170032,1.6164078 h 2.614764 l 1.278752,7.0522266 q 0.07634,0.4198838 0.143143,0.9065769 0.07634,0.4771447 0.143143,0.9829157 0.07634,0.50578 0.133599,0.992472 0.06681,0.486684 0.104967,0.906578 0.05726,-0.486694 0.124055,-1.002012 0.07634,-0.515319 0.152687,-1.01155 0.08588,-0.4962324 0.162232,-0.9352033 0.07634,-0.4485191 0.143141,-0.8016132 l 1.431441,-7.0903907 h 2.242589 l 1.33601,7.0713038 q 0.07634,0.3817197 0.152686,0.8397775 0.08588,0.4485191 0.162232,0.9447609 0.07634,0.496231 0.143142,1.002001 0.06681,0.496232 0.124055,0.982926 0.04772,-0.57258 0.133599,-1.221498 0.08588,-0.648917 0.181317,-1.3073833 0.104968,-0.6680046 0.209945,-1.2596613 l 1.297838,-7.0522266 z"
       id="text2"
       aria-label="DEEP VIEW" />
    <path
       style="font-size:12px;font-family:'Open Sans';-inkscape-font-specification:'Open Sans, @wght=300,wdth=75.0';font-variation-settings:'wdth' 75, 'wght' 300;letter-spacing:-0.05px;white-space:pre;fill:#250e81;stroke-width:0.488598;stroke-linejoin:bevel"
       d="M 88.434829,15.550569 H 83.243478 V 1.5988016 h 5.191351 V 2.457666 h -4.256148 v 5.344046 h 4.008037 v 0.8684031 h -4.008037 v 6.0120499 h 4.256148 z m 9.690533,0 H 97.008839 L 91.655254,3.1829314 h -0.0477 q 0.01913,0.3530844 0.02865,0.7348041 0.0096,0.3817195 0.01913,0.8111518 0.0096,0.4294322 0.0096,0.9161252 v 9.9055565 h -0.90658 V 1.5988016 h 1.116523 l 5.353585,12.2531254 h 0.0477 q -0.0096,-0.496232 -0.02865,-0.973376 -0.0096,-0.477145 -0.01904,-0.897038 -0.0096,-0.419885 -0.0096,-0.734805 V 1.5988016 h 0.906576 z m 5.291238,0 h -0.94475 V 2.457666 H 99.666221 V 1.5988016 h 6.565539 V 2.457666 h -2.81516 z m 9.59509,0 h -5.19134 V 1.5988016 h 5.19134 V 2.457666 h -4.25614 v 5.344046 h 4.00803 v 0.8684031 h -4.00803 v 6.0120499 h 4.25614 z m 4.35603,-13.9517674 q 1.2883,0 2.16625,0.372181 0.88749,0.3721714 1.32647,1.2024102 0.44851,0.8302291 0.44851,2.2044121 0,1.021089 -0.2672,1.7940669 -0.25766,0.7634393 -0.78251,1.2692193 -0.51532,0.4962316 -1.32647,0.7538813 l 2.8915,6.3555966 h -1.04972 l -2.7102,-6.1170146 h -1.79407 v 6.1170146 h -0.93519 V 1.5988016 Z m -0.0287,0.8588644 h -1.06881 v 6.1361109 h 1.43144 q 1.22149,0 1.93722,-0.7538909 0.72526,-0.7634393 0.72526,-2.4525328 0,-1.5555042 -0.70618,-2.2425957 -0.69663,-0.6870915 -2.31892,-0.6870915 z m 8.33544,-0.8588644 q 1.95629,0 2.90104,0.906577 0.94475,0.9065865 0.94475,3.0155735 0,1.1069755 -0.23856,1.908579 -0.22904,0.8016132 -0.70619,1.3264704 -0.4676,0.5153186 -1.2024,0.772978 -0.72528,0.2481206 -1.70818,0.2481206 h -1.16421 V 15.550569 H 123.5655 V 1.5988016 Z m -0.0287,0.8493258 h -1.14514 v 6.479647 h 1.18332 q 0.99246,0 1.62231,-0.3435458 0.63936,-0.3530843 0.94475,-1.0974367 0.31491,-0.7538909 0.31491,-1.9658398 0,-1.6795548 -0.71572,-2.3761946 -0.71572,-0.6966301 -2.20443,-0.6966301 z m 7.93463,-0.8493258 q 1.2883,0 2.16625,0.372181 0.88749,0.3721714 1.32647,1.2024102 0.44852,0.8302291 0.44852,2.2044121 0,1.021089 -0.2672,1.7940669 -0.25766,0.7634393 -0.78252,1.2692193 -0.51532,0.4962316 -1.32647,0.7538813 l 2.89151,6.3555966 h -1.04972 l -2.71019,-6.1170146 h -1.79408 v 6.1170146 h -0.93519 V 1.5988016 Z m -0.0287,0.8588644 h -1.06881 v 6.1361109 h 1.43144 q 1.22149,0 1.93722,-0.7538909 0.72525,-0.7634393 0.72525,-2.4525328 0,-1.5555042 -0.70616,-2.2425957 -0.69665,-0.6870915 -2.31894,-0.6870915 z m 6.22647,13.092903 V 1.5988016 h 0.92565 V 15.550569 Z m 9.29925,-3.693117 q 0,1.211958 -0.41988,2.080362 -0.41989,0.868402 -1.20241,1.336009 -0.78252,0.467606 -1.87996,0.467606 -0.43897,0 -0.91612,-0.05731 -0.4676,-0.05731 -0.92566,-0.171773 -0.44852,-0.12406 -0.83978,-0.305372 V 14.21451 q 0.57257,0.295832 1.29784,0.467606 0.72526,0.171773 1.35509,0.171773 0.8684,0 1.43145,-0.372181 0.57257,-0.372172 0.85885,-1.040177 0.28629,-0.668004 0.28629,-1.526869 0,-0.839777 -0.25765,-1.364634 -0.24813,-0.524867 -0.77298,-0.9161252 -0.52487,-0.4008066 -1.36464,-0.8397775 -0.57258,-0.3244588 -1.07836,-0.6489177 -0.49623,-0.3244587 -0.87795,-0.7443523 -0.37217,-0.4198838 -0.58212,-1.0115503 -0.20039,-0.5916567 -0.20039,-1.4218955 -0.009,-1.1356107 0.42943,-1.9276755 0.43897,-0.8016036 1.22149,-1.2214971 0.78252,-0.4198839 1.79407,-0.4198839 0.70619,0 1.37419,0.1813115 0.66801,0.1717729 1.11651,0.4198935 l -0.33399,0.8397775 q -0.57257,-0.3053719 -1.14516,-0.4294322 -0.56303,-0.1240508 -1.002,-0.1240508 -0.80161,0 -1.36464,0.3339976 -0.5535,0.3244587 -0.84932,0.9161252 -0.28629,0.5916567 -0.28629,1.4028086 0,0.8588644 0.28629,1.4028085 0.28628,0.5439539 0.81114,0.9352122 0.53441,0.3912584 1.25967,0.772978 0.89704,0.4866833 1.51733,0.9638281 0.62029,0.4771544 0.93521,1.1451593 0.32445,0.658457 0.32445,1.698642 z m 7.40978,3.693117 h -5.19136 V 1.5988016 h 5.19136 V 2.457666 h -4.25615 v 5.344046 h 4.00803 v 0.8684031 h -4.00803 v 6.0120499 h 4.25615 z"
       id="text4"
       aria-label="ENTERPRISE" />
  </g>
</svg>
