<?xml version="1.0" encoding="UTF-8" standalone="no"?>
<svg
   xmlns:dc="http://purl.org/dc/elements/1.1/"
   xmlns:cc="http://creativecommons.org/ns#"
   xmlns:rdf="http://www.w3.org/1999/02/22-rdf-syntax-ns#"
   xmlns:svg="http://www.w3.org/2000/svg"
   xmlns="http://www.w3.org/2000/svg"
   xmlns:xlink="http://www.w3.org/1999/xlink"
   xmlns:sodipodi="http://sodipodi.sourceforge.net/DTD/sodipodi-0.dtd"
   xmlns:inkscape="http://www.inkscape.org/namespaces/inkscape"
   width="660"
   height="400"
   viewBox="0 0 174.625 105.83334"
   version="1.1"
   id="svg8"
   inkscape:version="1.0.2-2 (e86c870879, 2021-01-15)"
   sodipodi:docname="logo_full_light.svg">
  <defs
     id="defs2">
    <linearGradient
       id="swatch4">
      <stop
         style="stop-color:#513e9a;stop-opacity:1;"
         offset="0"
         id="stop4" />
    </linearGradient>
    <clipPath
       clipPathUnits="userSpaceOnUse"
       id="clipPath3">
      <ellipse
         style="fill:none;fill-opacity:1;stroke:#250e81;stroke-width:0.277743;stroke-dasharray:none;stroke-opacity:1"
         id="ellipse3"
         cx="0.43831402"
         cy="8.446022"
         rx="3.4837713"
         ry="3.2042217" />
    </clipPath>
    <clipPath
       clipPathUnits="userSpaceOnUse"
       id="clipPath3-7">
      <ellipse
         style="fill:none;fill-opacity:1;stroke:#250e81;stroke-width:0.277743;stroke-dasharray:none;stroke-opacity:1"
         id="ellipse3-7"
         cx="0.43831402"
         cy="8.446022"
         rx="3.4837713"
         ry="3.2042217" />
    </clipPath>
    <linearGradient
       xlink:href="#swatch4"
       id="linearGradient4"
       x1="7.4097061"
       y1="6.6164742"
       x2="17.99304"
       y2="6.6164742"
       gradientUnits="userSpaceOnUse"
       gradientTransform="translate(120.84688,80.851468)" />
  </defs>
  <sodipodi:namedview
     id="base"
     pagecolor="#ffffff"
     bordercolor="#666666"
     borderopacity="1.0"
     inkscape:pageopacity="0.0"
     inkscape:pageshadow="2"
     inkscape:zoom="0.9899495"
     inkscape:cx="290.40417"
     inkscape:cy="400.7226"
     inkscape:document-units="mm"
     inkscape:current-layer="layer1"
     inkscape:document-rotation="0"
     showgrid="false"
     inkscape:window-width="1920"
     inkscape:window-height="1018"
     inkscape:window-x="-6"
     inkscape:window-y="-6"
     inkscape:window-maximized="1"
     units="px" />
  <metadata
     id="metadata5">
    <rdf:RDF>
      <cc:Work
         rdf:about="">
        <dc:format>image/svg+xml</dc:format>
        <dc:type
           rdf:resource="http://purl.org/dc/dcmitype/StillImage" />
        <dc:title></dc:title>
      </cc:Work>
    </rdf:RDF>
  </metadata>
  <g
     inkscape:label="Layer 1"
     inkscape:groupmode="layer"
     id="layer1">
    <path
       style="fill:#c4beda;fill-opacity:1;stroke:none;stroke-width:0.44307;stroke-linecap:butt;stroke-linejoin:miter;stroke-dasharray:none;stroke-opacity:1"
       d="M 113.59478,54.492351 C 62.76087,54.643882 62.773869,54.493264 62.773869,54.493264 47.453927,51.947668 46.409103,31.357344 63.943134,29.0276 61.94302,13.321105 93.423514,13.096703 89.888491,30.591742 c 6.89806,-5.563643 18.360549,0.440814 14.133089,11.15107 4.06873,-1.281274 6.68125,-0.414455 6.06146,4.23788 8.10067,-4.137581 9.53246,7.94883 3.51174,8.511659 z"
       id="path12" />
    <path
       id="path22"
       style="fill:#ffffff;fill-opacity:1;stroke:none;stroke-width:0.541057;stroke-dasharray:none;stroke-opacity:1"
       d="m 67.880535,21.439024 v 0.03477 c 0.0109,-0.01118 0.02114,-0.02441 0.03204,-0.03477 z m 31.70767,0 c 0.01086,0.01054 0.02044,0.02359 0.03205,0.03477 v -0.03477 z m -26.778299,1.73526 c -0.37327,-0.01391 -0.750507,0.01567 -1.052415,0.09111 -1.339136,0.334654 -2.351218,1.302882 -2.690427,2.571666 -0.114584,0.42864 -0.114584,1.265671 0,1.69431 0.342323,1.280594 1.431486,2.303663 2.759013,2.591119 0.588603,0.127448 1.482324,0.08478 2.010654,-0.09624 0.218127,-0.07475 0.413146,-0.118164 0.433051,-0.09624 0.160732,0.177051 3.059122,4.900074 3.026218,4.931415 -0.05998,0.05725 -1.325625,0.752463 -1.369782,0.752463 -0.01977,0 -0.122561,-0.126037 -0.228352,-0.279475 -0.409602,-0.594737 -1.118058,-1.115366 -1.856063,-1.363641 -0.36584,-0.123038 -0.470472,-0.134626 -1.179365,-0.136125 -0.682083,-0.0015 -0.820362,0.01295 -1.124076,0.114721 -1.270311,0.42562 -2.152116,1.324262 -2.470316,2.517403 -0.11588,0.434618 -0.116289,1.269417 -10e-4,1.700457 0.505577,1.891011 2.511787,3.03782 4.486081,2.564498 0.677012,-0.1623 1.205766,-0.454931 1.754716,-0.970514 l 0.262093,-0.246689 0.841527,0.46168 c 0.462906,0.253776 0.861043,0.479947 0.884526,0.502714 0.03272,0.03204 -2.864696,4.754556 -3.026219,4.932438 -0.01977,0.02181 -0.214923,-0.02044 -0.43305,-0.09522 -0.528344,-0.181046 -1.422072,-0.224738 -2.010654,-0.09721 -1.327527,0.28745 -2.416656,1.311543 -2.759013,2.59214 -0.114585,0.428687 -0.114585,1.265674 0,1.694307 0.333666,1.248259 1.334603,2.2178 2.643331,2.560408 0.455272,0.119152 1.276567,0.134762 1.757783,0.03272 1.067799,-0.226375 2.001676,-0.939378 2.478501,-1.89189 0.367954,-0.735062 0.419486,-1.123655 0.315263,-2.372036 -0.01227,-0.142123 0.04294,-0.177023 2.240995,-1.440422 l 2.254295,-1.295047 0.382881,0.362432 c 0.458407,0.433663 0.803791,0.646338 1.392304,0.856884 0.422008,0.151054 0.470677,0.157188 1.217238,0.155621 0.708844,-0.0015 0.813517,-0.01431 1.179365,-0.137148 0.577149,-0.194201 0.996049,-0.456226 1.458847,-0.914204 0.716225,-0.708715 1.029293,-1.457136 1.030922,-2.463152 l 10e-4,-0.555882 2.190829,-1.258197 c 1.205064,-0.692288 2.261322,-1.298838 2.346442,-1.347262 l 0.154598,-0.088 0.314307,0.262025 c 1.109488,0.923318 2.739758,1.124915 4.06738,0.503669 0.928525,-0.434549 1.673447,-1.320643 1.936931,-2.303441 0.117447,-0.43789 0.11847,-1.268962 0.0021,-1.705576 -0.319078,-1.196508 -1.19744,-2.090618 -2.471343,-2.517404 -0.302509,-0.101358 -0.444702,-0.116698 -1.124076,-0.116698 -0.744517,0 -0.796405,0.0075 -1.217234,0.157665 -0.241784,0.0865 -0.566451,0.232715 -0.722774,0.325555 -0.280969,0.166936 -0.933477,0.762728 -1.082101,0.987917 l -0.07677,0.116699 -2.159091,-1.241811 -2.159097,-1.241816 v -0.537675 c 0.0018,-1.012369 -0.299584,-1.744316 -1.010445,-2.454959 -0.480902,-0.480746 -0.8909,-0.741507 -1.480346,-0.939806 -0.365909,-0.123002 -0.470541,-0.135668 -1.179365,-0.137181 -0.746602,-0.0016 -0.79523,0.0046 -1.217238,0.155607 -0.569516,0.203799 -0.927483,0.420848 -1.349306,0.814907 l -0.341982,0.31839 -2.296278,-1.256145 c -2.242604,-1.227337 -2.294722,-1.259323 -2.278874,-1.397425 0.0088,-0.07775 0.01976,-0.446499 0.02454,-0.819002 0.0082,-0.640237 -4.37e-4,-0.701052 -0.146419,-1.109748 -0.377291,-1.056274 -1.207782,-1.861324 -2.302418,-2.230757 -0.288882,-0.09751 -0.658743,-0.154979 -1.031946,-0.168919 z m 2.677086,5.780107 c 0.06544,-0.06557 0.345595,0.07429 2.391475,1.193696 2.26313,1.238288 2.315002,1.270475 2.280928,1.397421 -0.09965,0.371184 -0.10204,0.98774 -0.0082,1.672813 0.01567,0.11847 -1.490564,0.961854 -1.560202,0.873261 -0.02454,-0.03204 -0.749812,-1.1842 -1.611385,-2.560406 -1.383396,-2.209702 -1.558225,-2.511191 -1.492637,-2.576785 z m 11.413814,5.31737 2.144759,1.235675 2.145781,1.235662 -0.01065,0.501624 c -0.0075,0.359569 0.01704,0.607757 0.08699,0.877355 0.05313,0.206949 0.09423,0.380428 0.09008,0.384926 -0.0043,0.0045 -0.978741,0.564745 -2.165235,1.245914 -1.186494,0.68117 -2.190399,1.25541 -2.231782,1.275593 -0.05385,0.02591 -0.211855,-0.10204 -0.551793,-0.44641 -0.39256,-0.397537 -0.551725,-0.519551 -0.902943,-0.6941 -0.657244,-0.326715 -1.137307,-0.427598 -1.903158,-0.399241 -0.502987,0.0184 -0.712212,0.05044 -1.031938,0.155619 -0.377701,0.124333 -0.405649,0.126991 -0.467883,0.04499 -0.03681,-0.04771 -0.338097,-0.522277 -0.670535,-1.053431 l -0.604008,-0.965402 0.604008,-0.965403 c 0.332438,-0.53114 0.634203,-1.005558 0.670535,-1.053437 0.06203,-0.08194 0.09018,-0.07927 0.467883,0.04499 0.319692,0.105244 0.528957,0.136943 1.031938,0.15562 0.765823,0.02795 1.245886,-0.07158 1.903158,-0.398286 0.348458,-0.173206 0.514439,-0.300879 0.910114,-0.697181 z m -6.042192,0.325554 c 0.02863,-0.0013 0.04635,0.0066 0.06134,0.02114 0.05931,0.0593 -0.0016,0.185408 -0.418735,0.8579 -0.268842,0.433392 -0.50326,0.787936 -0.52112,0.788291 -0.03613,7.08e-4 -0.610551,-0.90642 -0.585603,-0.924443 0.0088,-0.0062 0.339938,-0.186771 0.736077,-0.401354 0.46093,-0.249755 0.641361,-0.338233 0.72789,-0.341981 z m -2.797907,1.484402 c 0.05657,-0.02182 1.023751,1.478779 1.023751,1.588864 0,0.0334 -0.216901,0.40858 -0.482197,0.833334 -0.265297,0.424735 -0.49733,0.771304 -0.514985,0.769865 -0.01704,-0.0015 -0.437957,-0.226715 -0.934687,-0.500601 -0.852099,-0.469927 -0.902392,-0.5066 -0.891689,-0.637749 0.0062,-0.07641 0.02863,-0.36059 0.04976,-0.631682 l 0.03885,-0.492421 0.828215,-0.453499 c 0.45534,-0.24962 0.852031,-0.464202 0.88248,-0.476063 z m 1.91953,2.994482 c 0.01772,3.54e-4 0.251869,0.353911 0.520096,0.786238 0.372111,0.599713 0.474904,0.802373 0.433051,0.852788 -0.03,0.03681 -0.0698,0.06544 -0.08705,0.06476 -0.01704,-9e-4 -0.335983,-0.17014 -0.708435,-0.375723 -0.37252,-0.205517 -0.696636,-0.380565 -0.720726,-0.389017 -0.04635,-0.01635 0.507486,-0.939881 0.563109,-0.938777 z m -1.38923,2.174432 c 0.06967,-0.08855 1.576438,0.753772 1.560201,0.872236 -0.06823,0.497943 -0.08725,0.934428 -0.05385,1.275599 0.02181,0.225626 0.03204,0.418396 0.0225,0.427938 -0.0096,0.0096 -1.037938,0.603734 -2.28604,1.32065 -1.248102,0.716915 -2.275868,1.303234 -2.283994,1.303234 -0.0082,0 -0.04158,-0.03272 -0.07368,-0.07164 -0.04771,-0.05794 0.239463,-0.549339 1.50492,-2.570647 0.860729,-1.374868 1.585375,-2.525535 1.610363,-2.557335 z m 21.028897,12.614686 c -0.01225,0.01227 -0.02321,0.02454 -0.0361,0.03681 h 0.0361 z m -31.739403,0.001 v 0.03613 h 0.03408 c -0.01227,-0.01158 -0.02182,-0.02386 -0.03408,-0.03613 z" />
    <g
       id="g24-4-0-4"
       transform="matrix(9.9406776,0,0,10.807821,98.195619,-52.689423)"
       style="fill:#e9d68b;fill-opacity:1">
      <path
         d="m -2.2500154,11.299415 v -0.09132 c 0,-0.06469 0.016537,-0.124141 0.04961,-0.178365 0.033073,-0.05422 0.077013,-0.0956 0.1318192,-0.124142 0.1171727,-0.05898 0.2362351,-0.103214 0.3571875,-0.132703 0.1209524,-0.02948 0.2437947,-0.04423 0.3685268,-0.04423 0.1247321,0 0.2475744,0.01475 0.36852674,0.04423 0.12095239,0.02949 0.24001489,0.07373 0.35718745,0.132703 0.0548063,0.02854 0.098746,0.06992 0.13181915,0.124142 0.0330731,0.05422 0.0496097,0.11368 0.0496097,0.178365 v 0.09132 c 0,0.06278 -0.0222062,0.116532 -0.0666189,0.161242 -0.0444126,0.04471 -0.0978017,0.06706 -0.16016743,0.06706 H -2.0232297 c -0.062366,0 -0.1157552,-0.02236 -0.1601673,-0.06706 -0.044413,-0.04471 -0.066619,-0.09846 -0.066618,-0.161242 z"
         id="path1-3-6-7"
         style="fill:#e9d68b;fill-opacity:1;stroke-width:0.00284431" />
      <ellipse
         style="fill:#e9d68b;fill-opacity:1;stroke:none;stroke-width:0.0804012;stroke-dasharray:none;stroke-opacity:1"
         id="path24-4-5-7"
         cx="-1.3364947"
         cy="10.325121"
         rx="0.52916682"
         ry="0.46612492" />
    </g>
    <g
       id="g24-4-0-4-7-8"
       transform="matrix(9.9406776,0,0,10.807821,79.269799,-52.788597)"
       style="fill:#e9d68b;fill-opacity:1">
      <path
         d="m -2.2500154,11.299415 v -0.09132 c 0,-0.06469 0.016537,-0.124141 0.04961,-0.178365 0.033073,-0.05422 0.077013,-0.0956 0.1318192,-0.124142 0.1171727,-0.05898 0.2362351,-0.103214 0.3571875,-0.132703 0.1209524,-0.02948 0.2437947,-0.04423 0.3685268,-0.04423 0.1247321,0 0.2475744,0.01475 0.36852674,0.04423 0.12095239,0.02949 0.24001489,0.07373 0.35718745,0.132703 0.0548063,0.02854 0.098746,0.06992 0.13181915,0.124142 0.0330731,0.05422 0.0496097,0.11368 0.0496097,0.178365 v 0.09132 c 0,0.06278 -0.0222062,0.116532 -0.0666189,0.161242 -0.0444126,0.04471 -0.0978017,0.06706 -0.16016743,0.06706 H -2.0232297 c -0.062366,0 -0.1157552,-0.02236 -0.1601673,-0.06706 -0.044413,-0.04471 -0.066619,-0.09846 -0.066618,-0.161242 z"
         id="path1-3-6-7-1-5"
         style="fill:#e9d68b;fill-opacity:1;stroke-width:0.00284431"
         clip-path="url(#clipPath3)" />
      <ellipse
         style="fill:#e9d68b;fill-opacity:1;stroke:none;stroke-width:0.0804012;stroke-dasharray:none;stroke-opacity:1"
         id="path24-4-5-7-6-7"
         cx="-1.3364947"
         cy="10.325121"
         rx="0.52916682"
         ry="0.46612492" />
    </g>
    <g
       id="g24-4-0-4-7"
       transform="matrix(-9.9406776,0,0,10.807821,90.498609,-52.652661)"
       style="fill:#e9d68b;fill-opacity:1">
      <path
         d="m -2.2500154,11.299415 v -0.09132 c 0,-0.06469 0.016537,-0.124141 0.04961,-0.178365 0.033073,-0.05422 0.077013,-0.0956 0.1318192,-0.124142 0.1171727,-0.05898 0.2362351,-0.103214 0.3571875,-0.132703 0.1209524,-0.02948 0.2437947,-0.04423 0.3685268,-0.04423 0.1247321,0 0.2475744,0.01475 0.36852674,0.04423 0.12095239,0.02949 0.24001489,0.07373 0.35718745,0.132703 0.0548063,0.02854 0.098746,0.06992 0.13181915,0.124142 0.0330731,0.05422 0.0496097,0.11368 0.0496097,0.178365 v 0.09132 c 0,0.06278 -0.0222062,0.116532 -0.0666189,0.161242 -0.0444126,0.04471 -0.0978017,0.06706 -0.16016743,0.06706 H -2.0232297 c -0.062366,0 -0.1157552,-0.02236 -0.1601673,-0.06706 -0.044413,-0.04471 -0.066619,-0.09846 -0.066618,-0.161242 z"
         id="path1-3-6-7-1"
         style="fill:#e9d68b;fill-opacity:1;stroke-width:0.00284431"
         clip-path="url(#clipPath3-7)" />
      <ellipse
         style="fill:#e9d68b;fill-opacity:1;stroke:none;stroke-width:0.0804012;stroke-dasharray:none;stroke-opacity:1"
         id="path24-4-5-7-6"
         cx="-1.3364947"
         cy="10.325121"
         rx="0.52916682"
         ry="0.46612492" />
    </g>
    <ellipse
       style="fill:none;fill-opacity:1;stroke:#c4beda;stroke-width:2.87886;stroke-dasharray:none;stroke-opacity:1"
       id="path23"
       cx="84.895523"
       cy="38.716766"
       rx="34.631046"
       ry="34.630653" />
    <path
       style="font-size:12px;font-family:'Open Sans';-inkscape-font-specification:'Open Sans, @wght=700,wdth=75.0';font-variation-settings:'wdth' 75, 'wght' 700;letter-spacing:-0.05px;white-space:pre;fill:#e9d68b;fill-opacity:1;stroke-width:0.541057;stroke-linejoin:bevel"
       d="m 10.77886,90.230288 q 0,2.589046 -0.718591,4.374957 -0.7080245,1.785911 -2.0818014,2.715853 -1.3632109,0.919367 -3.3499047,0.919367 H 0.99333587 V 82.790757 H 4.8504806 q 1.9021542,0 3.2230937,0.85597 1.3315087,0.855969 2.0183967,2.515063 0.686889,1.659105 0.686889,4.068498 z m -3.0540134,0.13738 q 0,-1.733076 -0.3275937,-2.84267 Q 7.0696603,86.415415 6.4144741,85.88704 5.769855,85.358666 4.8082103,85.358666 H 3.9628085 v 10.282191 h 0.6446192 q 1.6062638,0 2.3565578,-1.299799 0.7608611,-1.29981 0.7608611,-3.97339 z M 19.945832,98.240465 H 13.002971 V 82.790757 h 6.942861 v 2.525637 h -3.973389 v 3.63522 h 3.698633 v 2.536211 h -3.698633 v 4.174168 h 3.973389 z m 9.145836,0 H 22.148807 V 82.790757 h 6.942861 v 2.525637 h -3.973389 v 3.63522 h 3.698635 v 2.536211 h -3.698635 v 4.174168 h 3.973389 z m 6.123529,-15.449708 q 2.356556,0 3.497849,1.225827 1.15186,1.215265 1.15186,3.550686 0,1.172993 -0.295891,2.134644 -0.285324,0.951077 -0.877104,1.637968 -0.591781,0.68688 -1.490021,1.056748 -0.898239,0.369858 -2.124071,0.369858 h -0.8137 v 5.473977 H 31.294647 V 82.790757 Z m -0.221919,2.525637 h -0.729159 v 4.913894 h 0.517809 q 0.708025,0 1.183562,-0.264187 0.475539,-0.264187 0.718592,-0.845407 0.243054,-0.58121 0.243054,-1.532287 0,-1.183566 -0.486107,-1.722503 -0.475539,-0.54951 -1.447751,-0.54951 z M 55.324483,82.790757 51.467339,98.240465 H 48.043462 L 44.218019,82.790757 h 3.096284 l 1.859883,8.718204 q 0.105671,0.486102 0.221919,1.141293 0.116237,0.644618 0.21135,1.289237 0.0951,0.634055 0.147943,1.09902 0.06341,-0.464965 0.158511,-1.09902 0.105671,-0.644619 0.221919,-1.289237 0.126806,-0.644618 0.232485,-1.141293 l 1.881019,-8.718204 z m 1.294172,15.449708 V 82.790757 h 2.969474 v 15.449708 z m 12.590851,0 H 62.266645 V 82.790757 h 6.942861 v 2.525637 h -3.973388 v 3.63522 h 3.698631 v 2.536211 h -3.698631 v 4.174168 h 3.973388 z M 86.756517,82.790757 83.723638,98.240465 h -3.392173 l -1.426616,-7.354996 q -0.06341,-0.380431 -0.137375,-0.813698 -0.06341,-0.433266 -0.137374,-0.908805 -0.06341,-0.475539 -0.116238,-0.982776 -0.05285,-0.517812 -0.10567,-1.067322 -0.04227,0.41213 -0.0951,0.887669 -0.05285,0.464976 -0.116238,0.961651 -0.06341,0.486101 -0.137374,0.972203 -0.07398,0.486112 -0.158512,0.929952 l -1.426616,7.376122 H 73.103279 L 70.049266,82.790757 h 2.895501 l 1.416047,7.809399 q 0.08453,0.464965 0.158513,1.003913 0.08453,0.528374 0.158511,1.088447 0.08453,0.560084 0.147943,1.099032 0.07398,0.538936 0.116237,1.003912 0.06341,-0.538947 0.137374,-1.109594 0.08454,-0.570646 0.169081,-1.120157 0.0951,-0.54951 0.179649,-1.035612 0.08453,-0.496675 0.158511,-0.887679 l 1.58513,-7.851661 h 2.483368 l 1.479452,7.830525 q 0.08453,0.422703 0.16908,0.929941 0.0951,0.496675 0.179649,1.046196 0.08454,0.54951 0.158512,1.109584 0.07398,0.54951 0.137375,1.088457 0.05284,-0.634055 0.147943,-1.352644 0.0951,-0.71859 0.200783,-1.447753 0.116238,-0.739726 0.232486,-1.394907 l 1.437183,-7.809399 z"
       id="text2"
       aria-label="DEEP VIEW" />
    <path
       style="font-size:12px;font-family:'Open Sans';-inkscape-font-specification:'Open Sans, @wght=300,wdth=75.0';font-variation-settings:'wdth' 75, 'wght' 300;letter-spacing:-0.05px;white-space:pre;fill:#c4beda;fill-opacity:1;stroke-width:0.541057;stroke-linejoin:bevel"
       d="M 96.919289,98.22098 H 91.170561 V 82.77126 h 5.748728 v 0.951078 h -4.713116 v 5.917817 h 4.438366 v 0.961641 h -4.438366 v 6.657543 h 4.713116 z m 10.730971,0 h -1.2364 l -5.92838,-13.695507 h -0.0528 q 0.0212,0.390993 0.0317,0.813697 0.0106,0.422703 0.0212,0.898242 0.0106,0.475539 0.0106,1.014487 V 98.22098 H 99.49232 V 82.77126 h 1.2364 l 5.92839,13.568701 h 0.0528 q -0.0106,-0.549511 -0.0317,-1.077885 -0.0106,-0.528374 -0.0211,-0.99335 -0.0106,-0.464965 -0.0106,-0.813697 V 82.77126 h 1.00391 z m 5.85934,0 h -1.04618 V 83.722338 h -3.10686 V 82.77126 h 7.27046 v 0.951078 h -3.11742 z m 10.62529,0 h -5.74872 V 82.77126 h 5.74872 v 0.951078 h -4.71311 v 5.917817 h 4.43835 v 0.961641 h -4.43835 v 6.657543 h 4.71311 z m 4.82372,-15.44972 q 1.42662,0 2.39883,0.412141 0.98278,0.41213 1.46889,1.331509 0.49666,0.919368 0.49666,2.441092 0,1.13072 -0.29588,1.986689 -0.28533,0.845407 -0.86654,1.405491 -0.57064,0.549511 -1.46888,0.834823 l 3.20195,7.037975 h -1.16242 l -3.00119,-6.773777 h -1.98669 v 6.773777 h -1.03561 V 82.77126 Z m -0.0317,0.951078 h -1.18356 v 6.794924 h 1.58513 q 1.35264,0 2.1452,-0.834834 0.80314,-0.845407 0.80314,-2.715853 0,-1.722513 -0.782,-2.483375 -0.77143,-0.760862 -2.5679,-0.760862 z m 9.23038,-0.951078 q 2.16634,0 3.21253,1.003913 1.04618,1.003924 1.04618,3.339345 0,1.225828 -0.26418,2.113497 -0.25363,0.887679 -0.782,1.468889 -0.51781,0.570646 -1.33151,0.85597 -0.80313,0.27476 -1.89158,0.27476 h -1.28925 v 6.393346 h -1.03561 V 82.77126 Z m -0.0317,0.940515 h -1.2681 v 7.175344 h 1.31037 q 1.09902,0 1.79649,-0.380431 0.70801,-0.390994 1.04618,-1.215265 0.34872,-0.834833 0.34872,-2.176905 0,-1.859882 -0.79256,-2.631318 -0.79256,-0.771425 -2.4411,-0.771425 z m 8.78654,-0.940515 q 1.42662,0 2.39883,0.412141 0.98278,0.41213 1.46889,1.331509 0.49668,0.919368 0.49668,2.441092 0,1.13072 -0.2959,1.986689 -0.28532,0.845407 -0.86653,1.405491 -0.57065,0.549511 -1.46889,0.834823 l 3.20196,7.037975 h -1.16242 l -3.00118,-6.773777 h -1.9867 v 6.773777 h -1.0356 V 82.77126 Z m -0.0317,0.951078 h -1.18356 v 6.794924 h 1.58513 q 1.35263,0 2.14521,-0.834834 0.80312,-0.845407 0.80312,-2.715853 0,-1.722513 -0.78199,-2.483375 -0.77143,-0.760862 -2.56791,-0.760862 z m 6.89495,14.498642 V 82.77126 h 1.02505 v 15.44972 z m 10.2977,-4.089634 q 0,1.342082 -0.46497,2.303722 -0.46497,0.961641 -1.33151,1.479452 -0.86654,0.517811 -2.0818,0.517811 -0.48611,0 -1.01448,-0.06346 -0.51781,-0.06346 -1.02505,-0.190215 -0.49667,-0.13738 -0.92994,-0.338159 v -1.09902 q 0.63404,0.327596 1.43718,0.517811 0.80313,0.190216 1.50059,0.190216 0.96164,0 1.58513,-0.412141 0.63404,-0.41213 0.95107,-1.151856 0.31703,-0.739726 0.31703,-1.690804 0,-0.929941 -0.28532,-1.51115 -0.27476,-0.58122 -0.85597,-1.014487 -0.58122,-0.44384 -1.51117,-0.929941 -0.63404,-0.359295 -1.19412,-0.71859 -0.54951,-0.359295 -0.97222,-0.824271 -0.41213,-0.464965 -0.64462,-1.120156 -0.22191,-0.655181 -0.22191,-1.57456 -0.0106,-1.257537 0.47554,-2.134643 0.4861,-0.887669 1.35264,-1.352645 0.86654,-0.464966 1.98669,-0.464966 0.782,0 1.52173,0.200779 0.73972,0.190215 1.2364,0.464976 l -0.36986,0.929941 q -0.63414,-0.33816 -1.2682,-0.475541 -0.62348,-0.137369 -1.10958,-0.137369 -0.88768,0 -1.51116,0.369857 -0.61292,0.359295 -0.94051,1.014487 -0.31703,0.655181 -0.31703,1.553423 0,0.951078 0.31703,1.553423 0.31702,0.602357 0.89823,1.035623 0.59179,0.433266 1.39492,0.85597 0.99335,0.538937 1.68024,1.067311 0.68688,0.528384 1.03561,1.26811 0.3593,0.729153 0.3593,1.881019 z m 8.20533,4.089634 h -5.74874 V 82.77126 h 5.74874 v 0.951078 h -4.71311 v 5.917817 h 4.43835 v 0.961641 h -4.43835 v 6.657543 h 4.71311 z"
       id="text4"
       aria-label="ENTERPRISE" />
  </g>
</svg>
