<?xml version="1.0" encoding="UTF-8" standalone="no"?>
<svg
   xmlns:dc="http://purl.org/dc/elements/1.1/"
   xmlns:cc="http://creativecommons.org/ns#"
   xmlns:rdf="http://www.w3.org/1999/02/22-rdf-syntax-ns#"
   xmlns:svg="http://www.w3.org/2000/svg"
   xmlns="http://www.w3.org/2000/svg"
   xmlns:xlink="http://www.w3.org/1999/xlink"
   xmlns:sodipodi="http://sodipodi.sourceforge.net/DTD/sodipodi-0.dtd"
   xmlns:inkscape="http://www.inkscape.org/namespaces/inkscape"
   width="210mm"
   height="297mm"
   viewBox="0 0 210 297"
   version="1.1"
   id="svg8"
   inkscape:version="1.0.2-2 (e86c870879, 2021-01-15)"
   sodipodi:docname="MainLogo.svg">
  <defs
     id="defs2">
    <linearGradient
       id="swatch4">
      <stop
         style="stop-color:#513e9a;stop-opacity:1;"
         offset="0"
         id="stop4" />
    </linearGradient>
    <clipPath
       clipPathUnits="userSpaceOnUse"
       id="clipPath3">
      <ellipse
         style="fill:none;fill-opacity:1;stroke:#250e81;stroke-width:0.277743;stroke-dasharray:none;stroke-opacity:1"
         id="ellipse3"
         cx="0.43831402"
         cy="8.446022"
         rx="3.4837713"
         ry="3.2042217" />
    </clipPath>
    <clipPath
       clipPathUnits="userSpaceOnUse"
       id="clipPath3-7">
      <ellipse
         style="fill:none;fill-opacity:1;stroke:#250e81;stroke-width:0.277743;stroke-dasharray:none;stroke-opacity:1"
         id="ellipse3-7"
         cx="0.43831402"
         cy="8.446022"
         rx="3.4837713"
         ry="3.2042217" />
    </clipPath>
    <linearGradient
       xlink:href="#swatch4"
       id="linearGradient4"
       x1="7.4097061"
       y1="6.6164742"
       x2="17.99304"
       y2="6.6164742"
       gradientUnits="userSpaceOnUse"
       gradientTransform="translate(120.84688,80.851468)" />
  </defs>
  <sodipodi:namedview
     id="base"
     pagecolor="#ffffff"
     bordercolor="#666666"
     borderopacity="1.0"
     inkscape:pageopacity="0.0"
     inkscape:pageshadow="2"
     inkscape:zoom="0.49497475"
     inkscape:cx="237.84708"
     inkscape:cy="556.31254"
     inkscape:document-units="mm"
     inkscape:current-layer="layer1"
     inkscape:document-rotation="0"
     showgrid="false"
     inkscape:window-width="1920"
     inkscape:window-height="1018"
     inkscape:window-x="-6"
     inkscape:window-y="-6"
     inkscape:window-maximized="1" />
  <metadata
     id="metadata5">
    <rdf:RDF>
      <cc:Work
         rdf:about="">
        <dc:format>image/svg+xml</dc:format>
        <dc:type
           rdf:resource="http://purl.org/dc/dcmitype/StillImage" />
        <dc:title></dc:title>
      </cc:Work>
    </rdf:RDF>
  </metadata>
  <g
     inkscape:label="Layer 1"
     inkscape:groupmode="layer"
     id="layer1">
    <g
       id="g25"
       transform="matrix(6.4016534,0,0,6.4016534,56.741546,41.138579)">
      <path
         style="fill:#250e81;fill-opacity:1;stroke:#ffffff;stroke-width:0.065;stroke-linecap:butt;stroke-linejoin:miter;stroke-dasharray:none;stroke-opacity:1"
         d="M 10.568374,8.6724266 C 3.1108603,8.6946566 3.1127672,8.6725605 3.1127672,8.6725605 0.86527753,8.2991125 0.71199813,5.2784392 3.2843024,4.9366575 2.9908788,2.632459 7.609179,2.5995384 7.0905783,5.1661226 8.1025486,4.3499166 9.7841347,5.2307916 9.1639516,6.802024 9.7608497,6.6140566 10.144114,6.741222 10.05319,7.4237361 c 1.188395,-0.6069978 1.398445,1.1661215 0.515184,1.2486905 z"
         id="path12" />
      <path
         id="path22"
         style="fill:#ffffff;fill-opacity:1;stroke:none;stroke-width:0.079375;stroke-dasharray:none;stroke-opacity:1"
         d="m 3.8619333,3.8233864 v 0.0051 c 0.0016,-0.00164 0.0031,-0.00358 0.0047,-0.0051 z m 4.651627,0 c 0.0016,0.00154 0.003,0.00346 0.0047,0.0051 v -0.0051 z m -3.928471,0.2545688 c -0.05476,-0.00204 -0.110102,0.0023 -0.154393,0.013367 -0.196456,0.049095 -0.344932,0.1911376 -0.394695,0.3772726 -0.01681,0.062883 -0.01681,0.1856785 0,0.2485613 0.05022,0.1878676 0.210004,0.3379555 0.404757,0.3801263 0.08635,0.018697 0.217462,0.012437 0.29497,-0.014118 0.032,-0.010966 0.06061,-0.017335 0.06353,-0.014118 0.02358,0.025974 0.448784,0.7188581 0.443957,0.7234561 -0.0088,0.0084 -0.194474,0.1103889 -0.200952,0.1103889 -0.0029,0 -0.01798,-0.01849 -0.0335,-0.041 -0.06009,-0.08725 -0.164023,-0.163628 -0.272291,-0.200051 -0.05367,-0.01805 -0.06902,-0.01975 -0.173017,-0.01997 -0.100064,-2.12e-4 -0.12035,0.0019 -0.164906,0.01683 -0.186359,0.06244 -0.315723,0.194274 -0.362404,0.369312 -0.017,0.06376 -0.01706,0.186228 -1.51e-4,0.249463 0.07417,0.277418 0.368488,0.445659 0.658124,0.376221 0.09932,-0.02381 0.17689,-0.06674 0.257423,-0.142378 l 0.03845,-0.03619 0.123455,0.06773 c 0.06791,0.03723 0.126318,0.07041 0.129763,0.07375 0.0048,0.0047 -0.420261,0.6975101 -0.443957,0.7236061 -0.0029,0.0032 -0.03153,-0.003 -0.06353,-0.01397 -0.07751,-0.02656 -0.208623,-0.03297 -0.29497,-0.01426 -0.194753,0.04217 -0.354532,0.192408 -0.404757,0.380276 -0.01681,0.06289 -0.01681,0.185679 0,0.248561 0.04895,0.183124 0.195791,0.325359 0.387786,0.375621 0.06679,0.01748 0.187277,0.01977 0.257873,0.0048 0.15665,-0.03321 0.293653,-0.13781 0.363605,-0.277547 0.05398,-0.1078361 0.06154,-0.1648441 0.04625,-0.347986 -0.0018,-0.02085 0.0063,-0.02597 0.328762,-0.211315 l 0.330713,-0.189988 0.05617,0.05317 c 0.06725,0.06362 0.117919,0.09482 0.204256,0.125708 0.06191,0.02216 0.06905,0.02306 0.178573,0.02283 0.10399,-2.21e-4 0.119346,-0.0021 0.173017,-0.02012 0.08467,-0.02849 0.146124,-0.06693 0.214018,-0.134117 0.105073,-0.103971 0.151001,-0.213767 0.15124,-0.361353 l 1.5e-4,-0.08155 0.321403,-0.184582 c 0.176787,-0.101561 0.331743,-0.190544 0.344231,-0.197648 l 0.02268,-0.01291 0.04611,0.03844 c 0.162765,0.135454 0.401932,0.165029 0.596698,0.07389 0.136219,-0.06375 0.245502,-0.193743 0.284156,-0.337923 0.01723,-0.06424 0.01738,-0.1861611 3e-4,-0.250214 -0.04681,-0.175532 -0.17567,-0.3067011 -0.362555,-0.369312 -0.04438,-0.01487 -0.06524,-0.01712 -0.164906,-0.01712 -0.109224,0 -0.116836,0.0011 -0.178573,0.02313 -0.03547,0.01269 -0.0831,0.03414 -0.106033,0.04776 -0.04122,0.02449 -0.136944,0.111895 -0.158749,0.144931 l -0.01126,0.01712 -0.316747,-0.182178 -0.316747,-0.1821787 V 5.4313009 C 6.7286863,5.2827827 6.6844663,5.1754036 6.5801803,5.0711497 6.5096303,5.0006227 6.4494823,4.962368 6.3630083,4.933277 6.3093283,4.915232 6.2939783,4.913374 6.1899913,4.913152 6.0804623,4.9129195 6.0733283,4.9138287 6.0114183,4.93598 5.9278683,4.965878 5.8753533,4.99772 5.8134703,5.0555297 l -0.05017,0.046709 -0.336872,-0.1842809 C 5.0974303,4.7379031 5.0897843,4.7332106 5.0921093,4.7129506 c 0.0013,-0.011407 0.0029,-0.065503 0.0036,-0.1201505 0.0012,-0.093925 -6.4e-5,-0.1028467 -0.02148,-0.1628039 -0.05535,-0.1549592 -0.177186,-0.273063 -0.337773,-0.32726 -0.04238,-0.014305 -0.09664,-0.022736 -0.15139,-0.024781 z m 0.392738,0.8479622 c 0.0096,-0.00962 0.0507,0.010899 0.350838,0.1751194 0.332009,0.1816612 0.339619,0.1863831 0.33462,0.2050067 -0.01462,0.054454 -0.01497,0.1449048 -0.0012,0.2454075 0.0023,0.01738 -0.218671,0.1411074 -0.228887,0.1281104 -0.0036,-0.0047 -0.11,-0.1737263 -0.236396,-0.3756205 C 4.9938533,4.9797697 4.9682053,4.9355402 4.9778273,4.9259174 Z m 1.674447,0.780077 0.314644,0.181278 0.314794,0.181276 -0.0015,0.07359 c -0.0011,0.05275 0.0025,0.08916 0.01277,0.128711 0.0078,0.03036 0.01382,0.05581 0.01322,0.05647 -5.94e-4,6.55e-4 -0.143585,0.08285 -0.317648,0.18278 -0.174062,0.09993 -0.321339,0.184173 -0.32741,0.187134 -0.0079,0.0038 -0.03108,-0.01497 -0.08095,-0.06549 -0.05759,-0.05832 -0.08094,-0.07622 -0.132465,-0.101827 -0.09642,-0.04793 -0.166847,-0.06273 -0.2792,-0.05857 -0.07379,0.0027 -0.104484,0.0074 -0.151389,0.02283 -0.05541,0.01824 -0.05951,0.01863 -0.06864,0.0066 -0.0054,-0.007 -0.0496,-0.07662 -0.09837,-0.154542 l -0.08861,-0.141628 0.08861,-0.141628 c 0.04877,-0.07792 0.09304,-0.147519 0.09837,-0.154543 0.0091,-0.01202 0.01323,-0.01163 0.06864,0.0066 0.0469,0.01544 0.0776,0.02009 0.151389,0.02283 0.112349,0.0041 0.182776,-0.0105 0.2792,-0.05843 0.05112,-0.02541 0.07547,-0.04414 0.133517,-0.102279 z m -0.886411,0.04776 c 0.0042,-1.83e-4 0.0068,9.73e-4 0.009,0.0031 0.0087,0.0087 -2.28e-4,0.0272 -0.06143,0.125857 -0.03944,0.06358 -0.07383,0.115593 -0.07645,0.115645 -0.0053,1.04e-4 -0.08957,-0.132975 -0.08591,-0.135619 0.0013,-9.1e-4 0.04987,-0.0274 0.107985,-0.05888 0.06762,-0.03664 0.09409,-0.04962 0.106784,-0.05017 z m -0.410463,0.217767 c 0.0083,-0.0032 0.150188,0.216942 0.150188,0.233092 0,0.0049 -0.03182,0.05994 -0.07074,0.122253 -0.03892,0.06231 -0.07296,0.113153 -0.07555,0.112942 -0.0025,-2.11e-4 -0.06425,-0.03326 -0.137122,-0.07344 -0.125006,-0.06894 -0.132384,-0.07432 -0.130814,-0.09356 9.09e-4,-0.01121 0.0042,-0.0529 0.0073,-0.09267 l 0.0057,-0.07224 0.121502,-0.06653 c 0.0668,-0.03662 0.124996,-0.0681 0.129463,-0.06984 z m 0.281602,0.439301 c 0.0026,5.2e-5 0.03695,0.05192 0.0763,0.115344 0.05459,0.08798 0.06967,0.117711 0.06353,0.125107 -0.0044,0.0054 -0.01024,0.0096 -0.01277,0.0095 -0.0025,-1.32e-4 -0.04929,-0.02496 -0.10393,-0.05512 -0.05465,-0.03015 -0.102199,-0.05583 -0.105733,-0.05707 -0.0068,-0.0024 0.07445,-0.137884 0.08261,-0.137722 z m -0.203805,0.318997 c 0.01022,-0.01299 0.231269,0.110581 0.228887,0.12796 -0.01001,0.07305 -0.0128,0.137084 -0.0079,0.187135 0.0032,0.0331 0.0047,0.06138 0.0033,0.06278 -0.0014,0.0014 -0.152269,0.08857 -0.33537,0.193744 -0.183101,0.105174 -0.333878,0.191189 -0.33507,0.191189 -0.0012,0 -0.0061,-0.0048 -0.01081,-0.01051 -0.007,-0.0085 0.03513,-0.08059 0.220777,-0.377123 0.126272,-0.201698 0.23258,-0.370505 0.236246,-0.37517 z m 3.085014,1.850619 c -0.0018,0.0018 -0.0034,0.0036 -0.0053,0.0054 h 0.0053 z m -4.656283,1.5e-4 v 0.0053 h 0.005 c -0.0018,-0.0017 -0.0032,-0.0035 -0.005,-0.0053 z" />
    </g>
    <g
       id="g24-4-0-4"
       transform="matrix(9.3357398,0,0,10.150113,109.93457,-4.0028019)"
       style="fill:#b0921b;fill-opacity:1">
      <path
         d="m -2.2500154,11.299415 v -0.09132 c 0,-0.06469 0.016537,-0.124141 0.04961,-0.178365 0.033073,-0.05422 0.077013,-0.0956 0.1318192,-0.124142 0.1171727,-0.05898 0.2362351,-0.103214 0.3571875,-0.132703 0.1209524,-0.02948 0.2437947,-0.04423 0.3685268,-0.04423 0.1247321,0 0.2475744,0.01475 0.36852674,0.04423 0.12095239,0.02949 0.24001489,0.07373 0.35718745,0.132703 0.0548063,0.02854 0.098746,0.06992 0.13181915,0.124142 0.0330731,0.05422 0.0496097,0.11368 0.0496097,0.178365 v 0.09132 c 0,0.06278 -0.0222062,0.116532 -0.0666189,0.161242 -0.0444126,0.04471 -0.0978017,0.06706 -0.16016743,0.06706 H -2.0232297 c -0.062366,0 -0.1157552,-0.02236 -0.1601673,-0.06706 -0.044413,-0.04471 -0.066619,-0.09846 -0.066618,-0.161242 z"
         id="path1-3-6-7"
         style="fill:#b0921b;fill-opacity:1;stroke-width:0.00284431" />
      <ellipse
         style="fill:#b0921b;fill-opacity:1;stroke:none;stroke-width:0.0804012;stroke-dasharray:none;stroke-opacity:1"
         id="path24-4-5-7"
         cx="-1.3364947"
         cy="10.325121"
         rx="0.52916682"
         ry="0.46612492" />
    </g>
    <g
       id="g24-4-0-4-7-8"
       transform="matrix(9.3357398,0,0,10.150113,92.160476,-4.0959409)"
       style="fill:#b0921b;fill-opacity:1">
      <path
         d="m -2.2500154,11.299415 v -0.09132 c 0,-0.06469 0.016537,-0.124141 0.04961,-0.178365 0.033073,-0.05422 0.077013,-0.0956 0.1318192,-0.124142 0.1171727,-0.05898 0.2362351,-0.103214 0.3571875,-0.132703 0.1209524,-0.02948 0.2437947,-0.04423 0.3685268,-0.04423 0.1247321,0 0.2475744,0.01475 0.36852674,0.04423 0.12095239,0.02949 0.24001489,0.07373 0.35718745,0.132703 0.0548063,0.02854 0.098746,0.06992 0.13181915,0.124142 0.0330731,0.05422 0.0496097,0.11368 0.0496097,0.178365 v 0.09132 c 0,0.06278 -0.0222062,0.116532 -0.0666189,0.161242 -0.0444126,0.04471 -0.0978017,0.06706 -0.16016743,0.06706 H -2.0232297 c -0.062366,0 -0.1157552,-0.02236 -0.1601673,-0.06706 -0.044413,-0.04471 -0.066619,-0.09846 -0.066618,-0.161242 z"
         id="path1-3-6-7-1-5"
         style="fill:#b0921b;fill-opacity:1;stroke-width:0.00284431"
         clip-path="url(#clipPath3)" />
      <ellipse
         style="fill:#b0921b;fill-opacity:1;stroke:none;stroke-width:0.0804012;stroke-dasharray:none;stroke-opacity:1"
         id="path24-4-5-7-6-7"
         cx="-1.3364947"
         cy="10.325121"
         rx="0.52916682"
         ry="0.46612492" />
    </g>
    <g
       id="g24-4-0-4-7"
       transform="matrix(-9.3357398,0,0,10.150113,102.70596,-3.9682778)"
       style="fill:#b0921b;fill-opacity:1">
      <path
         d="m -2.2500154,11.299415 v -0.09132 c 0,-0.06469 0.016537,-0.124141 0.04961,-0.178365 0.033073,-0.05422 0.077013,-0.0956 0.1318192,-0.124142 0.1171727,-0.05898 0.2362351,-0.103214 0.3571875,-0.132703 0.1209524,-0.02948 0.2437947,-0.04423 0.3685268,-0.04423 0.1247321,0 0.2475744,0.01475 0.36852674,0.04423 0.12095239,0.02949 0.24001489,0.07373 0.35718745,0.132703 0.0548063,0.02854 0.098746,0.06992 0.13181915,0.124142 0.0330731,0.05422 0.0496097,0.11368 0.0496097,0.178365 v 0.09132 c 0,0.06278 -0.0222062,0.116532 -0.0666189,0.161242 -0.0444126,0.04471 -0.0978017,0.06706 -0.16016743,0.06706 H -2.0232297 c -0.062366,0 -0.1157552,-0.02236 -0.1601673,-0.06706 -0.044413,-0.04471 -0.066619,-0.09846 -0.066618,-0.161242 z"
         id="path1-3-6-7-1"
         style="fill:#b0921b;fill-opacity:1;stroke-width:0.00284431"
         clip-path="url(#clipPath3-7)" />
      <ellipse
         style="fill:#b0921b;fill-opacity:1;stroke:none;stroke-width:0.0804012;stroke-dasharray:none;stroke-opacity:1"
         id="path24-4-5-7-6"
         cx="-1.3364947"
         cy="10.325121"
         rx="0.52916682"
         ry="0.46612492" />
    </g>
    <ellipse
       style="fill:none;fill-opacity:1;stroke:#250e81;stroke-width:2.70367;stroke-dasharray:none;stroke-opacity:1"
       id="path23"
       cx="97.443848"
       cy="81.840881"
       rx="32.523582"
       ry="32.523212" />
    <path
       style="font-size:12px;font-family:'Open Sans';-inkscape-font-specification:'Open Sans, @wght=700,wdth=75.0';font-variation-settings:'wdth' 75, 'wght' 700;letter-spacing:-0.05px;white-space:pre;fill:#b0921b;stroke-width:0.508131;stroke-linejoin:bevel;fill-opacity:1"
       d="m 27.837539,130.21956 q 0,2.43149 -0.674862,4.10872 -0.664938,1.67723 -1.955114,2.55058 -1.280253,0.86342 -3.146047,0.86342 H 18.64751 v -14.50952 h 3.622419 q 1.786399,0 3.026953,0.80388 1.25048,0.80388 1.895568,2.36201 0.645089,1.55814 0.645089,3.82091 z m -2.868163,0.12902 q 0,-1.62761 -0.307658,-2.66968 -0.307657,-1.04206 -0.922972,-1.53828 -0.605391,-0.49622 -1.508515,-0.49622 h -0.793955 v 9.65647 h 0.605391 q 1.508515,0 2.21315,-1.2207 0.714559,-1.22071 0.714559,-3.73159 z m 11.477281,7.3937 h -6.520355 v -14.50952 h 6.520355 v 2.37194 h -3.731589 v 3.414 h 3.473553 v 2.38187 h -3.473553 v 3.92015 h 3.731589 z m 8.589268,0 H 38.51557 v -14.50952 h 6.520355 v 2.37194 h -3.731589 v 3.414 h 3.473555 v 2.38187 h -3.473555 v 3.92015 h 3.731589 z m 5.750883,-14.50952 q 2.213148,0 3.284988,1.15123 1.081764,1.14131 1.081764,3.33461 0,1.10161 -0.277885,2.00474 -0.26796,0.8932 -0.823728,1.53829 -0.555768,0.64508 -1.399346,0.99244 -0.843577,0.34735 -1.994811,0.34735 h -0.764182 v 5.14086 h -2.788766 v -14.50952 z m -0.208414,2.37194 h -0.684786 v 4.61486 h 0.486297 q 0.664939,0 1.111537,-0.24811 0.4466,-0.24811 0.674862,-0.79396 0.228263,-0.54584 0.228263,-1.43904 0,-1.11154 -0.456525,-1.61768 -0.4466,-0.51607 -1.359648,-0.51607 z m 19.093954,-2.37194 -3.622419,14.50952 h -3.215517 l -3.592647,-14.50952 h 2.90786 l 1.746701,8.18766 q 0.09924,0.45652 0.208414,1.07184 0.109163,0.60539 0.198488,1.21078 0.08931,0.59547 0.13894,1.03214 0.05955,-0.43667 0.148865,-1.03214 0.09924,-0.60539 0.208414,-1.21078 0.119089,-0.60539 0.218337,-1.07184 l 1.76655,-8.18766 z m 1.215415,14.50952 v -14.50952 h 2.788767 v 14.50952 z m 11.824637,0 H 76.192046 V 123.23276 H 82.7124 v 2.37194 h -3.731588 v 3.414 h 3.473552 v 2.38187 h -3.473552 v 3.92015 H 82.7124 Z m 16.479192,-14.50952 -2.848314,14.50952 h -3.185743 l -1.3398,-6.90741 q -0.05955,-0.35728 -0.129015,-0.76418 -0.05955,-0.4069 -0.129014,-0.8535 -0.05955,-0.4466 -0.109164,-0.92297 -0.04963,-0.4863 -0.09924,-1.00237 -0.0397,0.38705 -0.08931,0.83365 -0.04963,0.43668 -0.109164,0.90313 -0.05955,0.45652 -0.129014,0.91304 -0.06948,0.45653 -0.148866,0.87336 l -1.339799,6.92725 h -3.16593 l -2.868162,-14.50952 h 2.719296 l 1.329874,7.33416 q 0.07939,0.43667 0.148866,0.94282 0.07939,0.49622 0.148865,1.02221 0.07939,0.526 0.13894,1.03215 0.06948,0.50614 0.109164,0.94282 0.05955,-0.50615 0.129014,-1.04207 0.07939,-0.53592 0.158791,-1.05199 0.08931,-0.51607 0.168717,-0.97259 0.07939,-0.46645 0.148865,-0.83366 l 1.488667,-7.37385 h 2.332243 l 1.38942,7.354 q 0.07939,0.39698 0.158791,0.87335 0.08931,0.46645 0.168717,0.98253 0.07939,0.51607 0.148865,1.04206 0.06948,0.51607 0.129015,1.02222 0.04963,-0.59547 0.13894,-1.27033 0.08931,-0.67486 0.188565,-1.35965 0.109164,-0.69471 0.218338,-1.31002 l 1.349723,-7.33416 z"
       id="text2"
       aria-label="DEEP VIEW" />
    <path
       style="font-size:12px;font-family:'Open Sans';-inkscape-font-specification:'Open Sans, @wght=300,wdth=75.0';font-variation-settings:'wdth' 75, 'wght' 300;letter-spacing:-0.05px;white-space:pre;fill:#250e81;stroke-width:0.508131;stroke-linejoin:bevel"
       d="m 108.73591,137.72398 h -5.39889 v -14.50953 h 5.39889 v 0.8932 h -4.4263 v 5.55769 h 4.16827 v 0.90312 h -4.16827 v 6.2524 h 4.4263 z m 10.07794,0 h -1.16116 l -5.56761,-12.86207 h -0.0496 q 0.0199,0.3672 0.0298,0.76418 0.01,0.39698 0.0199,0.84358 0.01,0.4466 0.01,0.95275 v 10.30156 h -0.94282 v -14.50953 h 1.16116 l 5.56761,12.74298 h 0.0496 q -0.01,-0.51607 -0.0298,-1.01229 -0.01,-0.49622 -0.0198,-0.9329 -0.01,-0.43667 -0.01,-0.76418 v -10.03361 h 0.94282 z m 5.50277,0 h -0.98252 v -13.61633 h -2.91779 v -0.8932 h 6.82802 v 0.8932 h -2.92771 z m 9.97869,0 h -5.39889 v -14.50953 h 5.39889 v 0.8932 h -4.4263 v 5.55769 h 4.16826 v 0.90312 h -4.16826 v 6.2524 h 4.4263 z m 4.53017,-14.50953 q 1.3398,0 2.25285,0.38706 0.92297,0.38705 1.3795,1.25048 0.46644,0.86342 0.46644,2.29254 0,1.06191 -0.27788,1.86579 -0.26796,0.79396 -0.8138,1.31996 -0.53592,0.51607 -1.3795,0.78402 l 3.0071,6.60968 h -1.09168 l -2.81855,-6.36156 h -1.86579 v 6.36156 h -0.97259 v -14.50953 z m -0.0298,0.8932 h -1.11153 v 6.38142 h 1.48866 q 1.27033,0 2.01466,-0.78403 0.75426,-0.79396 0.75426,-2.55058 0,-1.61769 -0.73441,-2.33225 -0.72448,-0.71456 -2.41163,-0.71456 z m 8.66867,-0.8932 q 2.03451,0 3.01703,0.94282 0.98252,0.94283 0.98252,3.13613 0,1.15123 -0.24811,1.98488 -0.23819,0.83366 -0.73441,1.3795 -0.4863,0.53592 -1.25048,0.80388 -0.75426,0.25804 -1.77647,0.25804 h -1.21079 v 6.00428 h -0.97259 v -14.50953 z m -0.0298,0.88328 h -1.19093 v 6.73869 h 1.23063 q 1.03214,0 1.68716,-0.35728 0.66493,-0.3672 0.98252,-1.14131 0.3275,-0.78403 0.3275,-2.04443 0,-1.7467 -0.74433,-2.47119 -0.74433,-0.72448 -2.29255,-0.72448 z m 8.25184,-0.88328 q 1.3398,0 2.25285,0.38706 0.92297,0.38705 1.3795,1.25048 0.46645,0.86342 0.46645,2.29254 0,1.06191 -0.27789,1.86579 -0.26796,0.79396 -0.8138,1.31996 -0.53592,0.51607 -1.3795,0.78402 l 3.00711,6.60968 h -1.09169 l -2.81854,-6.36156 h -1.8658 v 6.36156 h -0.97258 v -14.50953 z m -0.0298,0.8932 h -1.11154 v 6.38142 h 1.48867 q 1.27032,0 2.01466,-0.78403 0.75425,-0.79396 0.75425,-2.55058 0,-1.61769 -0.7344,-2.33225 -0.72449,-0.71456 -2.41164,-0.71456 z m 6.47536,13.61633 v -14.50953 h 0.96267 v 14.50953 z m 9.67103,-3.84076 q 0,1.26041 -0.43667,2.16353 -0.43668,0.90312 -1.25048,1.38942 -0.81381,0.4863 -1.95512,0.4863 -0.45652,0 -0.95274,-0.0596 -0.4863,-0.0596 -0.96267,-0.17864 -0.46645,-0.12902 -0.87335,-0.31758 v -1.03214 q 0.59546,0.30766 1.34972,0.4863 0.75426,0.17864 1.40927,0.17864 0.90312,0 1.48867,-0.38706 0.59546,-0.38705 0.89319,-1.08176 0.29774,-0.69471 0.29774,-1.58791 0,-0.87335 -0.26796,-1.41919 -0.25804,-0.54585 -0.80388,-0.95275 -0.54585,-0.41683 -1.4192,-0.87335 -0.59546,-0.33743 -1.12146,-0.67486 -0.51607,-0.33743 -0.91305,-0.77411 -0.38705,-0.43667 -0.60539,-1.05199 -0.20841,-0.61531 -0.20841,-1.47874 -0.01,-1.18101 0.4466,-2.00474 0.45652,-0.83365 1.27033,-1.27033 0.8138,-0.43667 1.86579,-0.43667 0.73441,0 1.42912,0.18856 0.69471,0.17864 1.16116,0.43668 l -0.34735,0.87335 q -0.59547,-0.31758 -1.19094,-0.4466 -0.58554,-0.12901 -1.04206,-0.12901 -0.83366,0 -1.4192,0.34735 -0.57562,0.33743 -0.88327,0.95275 -0.29774,0.61531 -0.29774,1.45889 0,0.8932 0.29774,1.45889 0.29773,0.5657 0.84357,0.9726 0.55577,0.4069 1.31003,0.80388 0.9329,0.50614 1.57799,1.00236 0.64508,0.49623 0.97259,1.19094 0.33743,0.68478 0.33743,1.76655 z m 7.706,3.84076 h -5.3989 v -14.50953 h 5.3989 v 0.8932 h -4.4263 v 5.55769 h 4.16826 v 0.90312 h -4.16826 v 6.2524 h 4.4263 z"
       id="text4"
       aria-label="ENTERPRISE" />
  </g>
</svg>
